<?xml version="1.0" encoding="UTF-8"?>
<svg width="21px" height="24px" viewBox="0 0 21 24" version="1.1" xmlns="http://www.w3.org/2000/svg" xmlns:xlink="http://www.w3.org/1999/xlink">
    <!-- Generator: Sketch 43.2 (39069) - http://www.bohemiancoding.com/sketch -->
    <title>database</title>
    <desc>Created with Sketch.</desc>
    <defs></defs>
    <g id="Page-1" stroke="none" stroke-width="1" fill="none" fill-rule="evenodd" fill-opacity="0.6">
        <g id="Tablet-Portrait" transform="translate(-257.000000, -40.000000)" fill-rule="nonzero" fill="#FFFFFF">
            <g id="database" transform="translate(257.000000, 40.000000)">
                <path d="M20.8695652,3.42857812 L20.8695652,5.57142187 C20.8695652,7.45982812 16.1956677,9 10.4347826,9 C4.67389752,9 0,7.45982812 0,5.57142187 L0,3.42857812 C0,1.54017187 4.67389752,0 10.4347826,0 C16.1956677,0 20.8695652,1.54017187 20.8695652,3.42857812 Z M20.8695652,8.25 L20.8695652,13.0714219 C20.8695652,14.9598281 16.1956677,16.5 10.4347826,16.5 C4.67389752,16.5 0,14.9598281 0,13.0714219 L0,8.25 C2.24184783,9.80357812 6.34509317,10.5268125 10.4347826,10.5268125 C14.524472,10.5268125 18.6276708,9.80357812 20.8695652,8.25 Z M20.8695652,15.75 L20.8695652,20.5714219 C20.8695652,22.4598281 16.1956677,24 10.4347826,24 C4.67389752,24 0,22.4598281 0,20.5714219 L0,15.75 C2.24184783,17.3035781 6.34509317,18.0268125 10.4347826,18.0268125 C14.524472,18.0268125 18.6276708,17.3035781 20.8695652,15.75 Z" id="Shape"></path>
            </g>
        </g>
    </g>
</svg>