<?xml version="1.0" encoding="UTF-8"?>
<svg width="33px" height="23px" viewBox="0 0 33 23" version="1.1" xmlns="http://www.w3.org/2000/svg" xmlns:xlink="http://www.w3.org/1999/xlink">
    <!-- Generator: Sketch 43.2 (39069) - http://www.bohemiancoding.com/sketch -->
    <title>money</title>
    <desc>Created with Sketch.</desc>
    <defs></defs>
    <g id="Page-1" stroke="none" stroke-width="1" fill="none" fill-rule="evenodd" fill-opacity="0.6">
        <g id="Tablet-Portrait" transform="translate(-23.000000, -37.000000)" fill-rule="nonzero" fill="#FFFFFF">
            <g id="money" transform="translate(23.000000, 37.000000)">
                <path d="M31.35,0 L1.65,0 C0.738890625,0 0,0.735691964 0,1.64285714 L0,21.3571429 C0,22.264308 0.738890625,23 1.65,23 L31.35,23 C32.2611094,23 33,22.264308 33,21.3571429 L33,1.64285714 C33,0.735691964 32.2611094,0 31.35,0 Z M9.075,15.1902679 L9.075,16.0178571 C9.075,16.2447768 8.89040625,16.4285714 8.6625,16.4285714 L7.8375,16.4285714 C7.60959375,16.4285714 7.425,16.2447768 7.425,16.0178571 L7.425,15.1815402 C6.84285937,15.1517634 6.27670312,14.9494866 5.80748437,14.5988393 C5.60639062,14.4484152 5.59607812,14.1485938 5.77809375,13.9755804 L6.38395312,13.400067 C6.52678125,13.2645313 6.73921875,13.2583705 6.90628125,13.3625893 C7.10582812,13.4868304 7.3321875,13.5535714 7.5673125,13.5535714 L9.01673437,13.5535714 C9.35189062,13.5535714 9.62517187,13.2496429 9.62517187,12.8764063 C9.62517187,12.5709375 9.43903125,12.3019196 9.17296875,12.2228571 L6.85265625,11.5297768 C5.89410937,11.2433036 5.2243125,10.3274107 5.2243125,9.30216518 C5.2243125,8.04332589 6.20657812,7.02064732 7.42448437,6.98830357 L7.42448437,6.16071429 C7.42448437,5.93379464 7.60907812,5.75 7.83698437,5.75 L8.66198437,5.75 C8.88989062,5.75 9.07448437,5.93379464 9.07448437,6.16071429 L9.07448437,6.99703125 C9.656625,7.02680804 10.2227813,7.22857143 10.692,7.57973214 C10.8930938,7.73015625 10.9034062,8.02997768 10.7213906,8.20299107 L10.1155312,8.77850446 C9.97270312,8.91404018 9.76026562,8.92020089 9.59320312,8.81598214 C9.39365625,8.69122768 9.16729687,8.625 8.93217187,8.625 L7.48275,8.625 C7.14759375,8.625 6.8743125,8.92892857 6.8743125,9.30216518 C6.8743125,9.60763393 7.06045312,9.87665179 7.32651562,9.95571429 L9.64682812,10.6487946 C10.605375,10.9352679 11.2751719,11.8511607 11.2751719,12.8764063 C11.2751719,14.1357589 10.2929062,15.1579241 9.075,15.1902679 L9.075,15.1902679 Z M21.45,14.375 C21.45,14.6019196 21.2654062,14.7857143 21.0375,14.7857143 L15.2625,14.7857143 C15.0345937,14.7857143 14.85,14.6019196 14.85,14.375 L14.85,13.5535714 C14.85,13.3266518 15.0345937,13.1428571 15.2625,13.1428571 L21.0375,13.1428571 C21.2654062,13.1428571 21.45,13.3266518 21.45,13.5535714 L21.45,14.375 Z M29.7,14.375 C29.7,14.6019196 29.5154063,14.7857143 29.2875,14.7857143 L25.1625,14.7857143 C24.9345938,14.7857143 24.75,14.6019196 24.75,14.375 L24.75,13.5535714 C24.75,13.3266518 24.9345938,13.1428571 25.1625,13.1428571 L29.2875,13.1428571 C29.5154063,13.1428571 29.7,13.3266518 29.7,13.5535714 L29.7,14.375 Z M29.7,9.44642857 C29.7,9.67334821 29.5154062,9.85714286 29.2875,9.85714286 L15.2625,9.85714286 C15.0345938,9.85714286 14.85,9.67334821 14.85,9.44642857 L14.85,8.625 C14.85,8.39808036 15.0345938,8.21428571 15.2625,8.21428571 L29.2875,8.21428571 C29.5154062,8.21428571 29.7,8.39808036 29.7,8.625 L29.7,9.44642857 Z" id="Shape"></path>
            </g>
        </g>
    </g>
</svg>