<?xml version="1.0" encoding="UTF-8"?>
<svg width="22px" height="26px" viewBox="0 0 22 26" version="1.1" xmlns="http://www.w3.org/2000/svg" xmlns:xlink="http://www.w3.org/1999/xlink">
    <!-- Generator: Sketch 43.2 (39069) - http://www.bohemiancoding.com/sketch -->
    <title>trash</title>
    <desc>Created with Sketch.</desc>
    <defs></defs>
    <g id="Page-1" stroke="none" stroke-width="1" fill="none" fill-rule="evenodd">
        <g id="Tablet-Portrait" transform="translate(-278.000000, -565.000000)" fill-rule="nonzero" fill="#7A7A7A">
            <g id="Group-Copy-2" transform="translate(50.000000, 554.000000)">
                <g id="trash" transform="translate(228.000000, 11.000000)">
                    <path d="M0,4.265625 L0,2.84375 C0,2.16835937 0.525446429,1.625 1.17857143,1.625 L6.67857143,1.625 L7.14017857,0.675390625 C7.33660714,0.258984375 7.74419643,0 8.19107143,0 L13.8040179,0 C14.2508929,0 14.6584821,0.258984375 14.8598214,0.675390625 L15.3214286,1.625 L20.8214286,1.625 C21.4745536,1.625 22,2.16835937 22,2.84375 L22,4.265625 C22,4.60078125 21.7348214,4.875 21.4107143,4.875 L0.589285714,4.875 C0.265178571,4.875 0,4.60078125 0,4.265625 Z M20.4285714,7.109375 L20.4285714,23.5625 C20.4285714,24.9082031 19.3727679,26 18.0714286,26 L3.92857143,26 C2.62723214,26 1.57142857,24.9082031 1.57142857,23.5625 L1.57142857,7.109375 C1.57142857,6.77421875 1.83660714,6.5 2.16071429,6.5 L19.8392857,6.5 C20.1633929,6.5 20.4285714,6.77421875 20.4285714,7.109375 Z M7.07142857,10.5625 C7.07142857,10.115625 6.71785714,9.75 6.28571429,9.75 C5.85357143,9.75 5.5,10.115625 5.5,10.5625 L5.5,21.9375 C5.5,22.384375 5.85357143,22.75 6.28571429,22.75 C6.71785714,22.75 7.07142857,22.384375 7.07142857,21.9375 L7.07142857,10.5625 Z M11.7857143,10.5625 C11.7857143,10.115625 11.4321429,9.75 11,9.75 C10.5678571,9.75 10.2142857,10.115625 10.2142857,10.5625 L10.2142857,21.9375 C10.2142857,22.384375 10.5678571,22.75 11,22.75 C11.4321429,22.75 11.7857143,22.384375 11.7857143,21.9375 L11.7857143,10.5625 Z M16.5,10.5625 C16.5,10.115625 16.1464286,9.75 15.7142857,9.75 C15.2821429,9.75 14.9285714,10.115625 14.9285714,10.5625 L14.9285714,21.9375 C14.9285714,22.384375 15.2821429,22.75 15.7142857,22.75 C16.1464286,22.75 16.5,22.384375 16.5,21.9375 L16.5,10.5625 Z" id="Shape"></path>
                </g>
            </g>
        </g>
    </g>
</svg>